# xmcd
#
# Track frame offsets:
#	150
#	18362
#	31662
#	48724
#	68931
#	87609
#	107151
#	126456
#	148018
#	162282
#
# Disc length: 2362 seconds
#
# Revision: 2
# Processed by: cddbd v1.5.2PL0 Copyright (c) Steve Scherf et al.
# Submitted via: EasyCDDAExtractor 16.0.0.1
#
DISCID=8e09380a
DTITLE=ZZ Top - La Futura
DYEAR=2012
DGENRE=Blues
TTITLE0=I Gotsta Get Paid
TTITLE1=Chartreuse
TTITLE2=Consumption
TTITLE3=Over You
TTITLE4=Heartache in Blue
TTITLE5=I Don't Wanna Lose, Lose, You
TTITLE6=Flyin' High
TTITLE7=It's Too Easy Mañana
TTITLE8=Big Shiny Nine
TTITLE9=Have a Little Mercy
EXTD=
EXTT0=
EXTT1=
EXTT2=
EXTT3=
EXTT4=
EXTT5=
EXTT6=
EXTT7=
EXTT8=
EXTT9=
PLAYORDER=
